<?xml version="1.0" encoding="UTF-8"?>
<svg width="64px" height="64px" enable-background="new 0 0 96.732 112.5" inkscape:version="1.3 (0e150ed6c4, 2023-07-21)" sodipodi:docname="Barometer.svg" version="1.1" viewBox="0 0 96.732 112.5" xml:space="preserve" xmlns="http://www.w3.org/2000/svg" xmlns:inkscape="http://www.inkscape.org/namespaces/inkscape" xmlns:sodipodi="http://sodipodi.sourceforge.net/DTD/sodipodi-0.dtd"><sodipodi:namedview bordercolor="#000000" borderopacity="0.25" inkscape:current-layer="svg86" inkscape:cx="31.977607" inkscape:cy="28.417075" inkscape:deskcolor="#d1d1d1" inkscape:pagecheckerboard="0" inkscape:pageopacity="0.0" inkscape:showpageshadow="2" inkscape:window-height="1706" inkscape:window-maximized="1" inkscape:window-width="2880" inkscape:window-x="-11" inkscape:window-y="-11" inkscape:zoom="22.328125" pagecolor="#ffffff"/><g fill="#0055d4">
<g id="Group_Lower">
	
	<path d="m29.842 112.5v-10.585h36.712v10.585h-36.712"/>
	
	<path d="m41.778 96.225v5.914h13.063v-6.393c-0.472 0.146-9.695 0.764-13.063 0.479z"/>
</g>
<g id="Group_Adjustors">
	
	<path d="m42.107 19.143c4.225 0.053 8.482 0.445 12.733 0.641v-13.251h-13.062v12.622c0.109-5e-3 0.216-0.014 0.329-0.012z"/>
	<path d="M20.833,0.001h54.954v6.531H20.833V0.001z" stroke="#4C4C4C" stroke-width=".25"/>
	
	<path d="M33.895,6.533h-9.009V0.001h9.009V6.533z"/>
	
	<path d="M46.959,6.533H37.95V0.001h9.009V6.533z"/>
	
	<path d="M60.247,6.533h-9.233V0.001h9.233V6.533z"/>
	
	<path d="M73.309,6.533h-9.234V0.001h9.234V6.533z"/><g stroke="#4C4C4C" stroke-width=".25">
	<path d="m24.886 1e-3v6.531"/>
	<path d="m37.95 1e-3v6.531"/>
	<path d="m51.012 1e-3v6.531"/>
	<path d="m64.075 1e-3v6.531"/>
	<path d="m34.121 1e-3v6.531"/>
	<path d="m47.183 1e-3v6.531"/>
	<path d="m60.247 1e-3v6.531"/>
	<path d="m73.309 1e-3v6.531"/>
</g></g>
<g id="Group_Handle">
	
	<path d="M0,83.67h96.732v10.361H0V83.67z"/>
	
	<path d="M7.77,80.968h81.079v15.767H7.77V80.968z"/>
	
	<path d="m20.833 79.842h20.945l2.478 9.01-2.478 9.232h-20.945v-18.242z" stroke="#4C4C4C" stroke-width=".1"/>
	
	<path d="m75.787 98.084h-20.945l-2.478-9.232 2.478-9.233h20.945v18.465z" stroke="#4C4C4C" stroke-width=".1"/>
</g>
<g id="Group_Analog_Guage">
	
	<circle cx="48.309" cy="49.662" r="32.657" fill="#0055d4" stroke="#4C4C4C" stroke-width=".25"/>
	
	<circle cx="48.309" cy="49.662" r="27.477" fill="#0055d4" stroke="#7F7F7F" stroke-width=".1"/><g fill="#dbdee3" stroke-width=".25"><g stroke="#4C4C4C">
	<path d="m58.445 59.797 7.432 7.434"/>
	<path d="m62.723 49.662h10.359"/>
	<path d="m58.445 39.527 7.432-7.432"/>
	<path d="M48.309,35.248V24.663"/>
	<path d="m38.175 39.527-7.432-7.432"/>
	<path d="M33.895,49.662H23.31"/>
	<path d="m38.175 59.797-7.432 7.434"/>
	</g><path d="m64.301 61.148 4.055 3.152" stroke="#999"/>
	<path d="m65.877 58.671 4.505 2.253" stroke="#999"/>
	</g><path d="m67.003 55.743 4.955 1.577" fill="#0b1728" stroke="#999" stroke-width=".25"/><g fill="#dbdee3" stroke="#999" stroke-width=".25">
	<path d="m67.678 52.59 5.181 0.901"/>
	<path d="m67.678 46.509 5.181-0.901"/>
	<path d="m67.003 43.582 4.955-1.577"/>
	<path d="m65.877 40.653 4.505-2.252"/>
	<path d="m64.301 38.176 4.055-3.153"/>
	<path d="m59.796 33.672 3.153-4.279"/>
	<path d="m57.094 32.095 2.478-4.729"/>
	<path d="m54.39 30.969 1.576-5.18"/>
	<path d="m51.238 30.293 0.9-5.405"/>
	<path d="m45.157 30.293-0.901-5.18"/>
	<path d="m42.228 30.969-1.803-4.955"/>
	<path d="m39.301 32.095-2.478-4.729"/>
	<path d="m36.823 33.672-3.378-4.279"/>
	<path d="m32.319 38.176-4.279-3.153"/>
	<path d="m30.743 40.653-4.729-2.252"/>
	<path d="m29.616 43.582-5.18-1.577"/>
	<path d="m28.941 46.509-5.405-0.676"/>
	<path d="m28.941 52.59-5.182 1.126"/>
	<path d="m29.616 55.743-4.954 1.577"/>
	<path d="m30.743 58.671-4.729 2.253"/>
	<path d="m32.319 61.148-4.279 3.152"/>
</g></g>
</g><g id="Group_Red_Center" fill="#59f">
	<circle cx="48.309" cy="49.662" r="2.703" fill="#59f"/>
</g>
</svg>
