<?xml version="1.0" encoding="UTF-8"?>
<svg width="64px" height="64px" enable-background="new 0 0 112.5 90.54" inkscape:version="1.3 (0e150ed6c4, 2023-07-21)" sodipodi:docname="CleanFilter.svg" version="1.1" viewBox="0 0 112.5 90.54" xml:space="preserve" xmlns="http://www.w3.org/2000/svg" xmlns:inkscape="http://www.inkscape.org/namespaces/inkscape" xmlns:sodipodi="http://sodipodi.sourceforge.net/DTD/sodipodi-0.dtd"><sodipodi:namedview bordercolor="#000000" borderopacity="0.25" inkscape:current-layer="g25" inkscape:cx="31.955213" inkscape:cy="35.582925" inkscape:deskcolor="#d1d1d1" inkscape:pagecheckerboard="0" inkscape:pageopacity="0.0" inkscape:showpageshadow="2" inkscape:window-height="1706" inkscape:window-maximized="1" inkscape:window-width="2880" inkscape:window-x="-11" inkscape:window-y="-11" inkscape:zoom="22.328125" pagecolor="#ffffff"/><g fill="#0055d4">
<g stroke="#fff" stroke-width=".25">
	<path d="M33.671,58.558h50.226v16.778H33.671V58.558z"/>


	<path d="M11.825,8.896h93.918v2.59H11.825V8.896z"/>


	<path d="M28.491,1.464h60.585v2.59H28.491V1.464z"/>


	
	</g><path d="m22.86 58.559s12.899 20.044 35.811 20.044 36.036-20.045 36.036-20.045l1.802-53.04s-19.085-5.518-36.823-5.518c-17.739 0-38.627 5.518-38.627 5.518l1.801 53.041z"/><g stroke="#fff">


	
		
	<path d="m48.646 6.658v27.074s2.076 9.104 10.106 9.104c8.028 0 9.907-9.104 9.907-9.104s0.015-12.058 0.026-26.311c-6.685-0.069-13.362-0.384-20.039-0.763z" stroke-width=".1129"/>
	
		
	<path d="m67.11 55.967c-9e-3 12.234-0.019 21.96-0.019 21.96s-1.563 8.92-8.236 8.92c-6.677 0-8.404-8.92-8.404-8.92v-21.96" stroke-width=".1129"/><g stroke-width=".25">

<g id="Group_Drivershaft_Chamber" transform="translate(-.55108 .62981)">
	<path d="m80.518 16.667h5.182v15.878h-5.182z"/>
	<path d="m31.87 16.667h4.842v15.878h-4.842z"/>
</g>

	<path d="M21.059,5.518h75.45v1.013h-75.45V5.518z" fill="#0055d4"/>

<g id="Group_Bolts">
	<path d="M22.635,4.054h3.266v14.865h-3.266V4.054z"/>
	<path d="M25.901,4.054h1.802v14.865h-1.802V4.054z"/>
	<path d="M39.302,4.054h3.378v14.865h-3.378V4.054z"/>
	<path d="M42.68,4.054h1.802v14.865H42.68V4.054z"/>
	<path d="M56.081,4.054h3.604v14.865h-3.604V4.054z"/>
	<path d="M59.686,4.054h1.463v14.865h-1.463V4.054z"/>
	<path d="M73.086,4.054h3.266v14.865h-3.266V4.054z"/>
	<path d="M76.352,4.054h1.576v14.865h-1.576V4.054z"/>
	<path d="M89.752,4.054h3.379v14.865h-3.379V4.054z"/>
	<path d="M93.131,4.054h1.801v14.865h-1.801V4.054z"/>
</g>

	<path d="M18.469,11.486H99.1v5.18h-80.63V11.486z"/>
	
		
	</g></g><path d="M18.469,6.531H99.1v4.955h-80.63V6.531z"/>

<g id="Group_Support" stroke="#0055d4">
	
		
	<path d="M26.689,28.266V90.54h6.982V51.915L26.689,28.266z"/>
	
		
	<path d="M90.541,28.266V90.54h-6.645V51.915L90.541,28.266z"/>
	<path d="m33.671 51.915-6.982-23.648" stroke-width=".25"/>
	<path d="m83.896 51.915 6.645-23.648" stroke-width=".25"/>
</g>

	
		
	


	
		
	
	
		
	


	
		
	


	
		
	
	
		
	

</g></svg>
