<?xml version="1.0" encoding="UTF-8"?>
<svg width="64px" height="64px" enable-background="new 0 0 53.15 112.5" inkscape:version="1.3 (0e150ed6c4, 2023-07-21)" sodipodi:docname="CompoundVacuumGauge.svg" version="1.1" viewBox="0 0 53.15 112.5" xml:space="preserve" xmlns="http://www.w3.org/2000/svg" xmlns:inkscape="http://www.inkscape.org/namespaces/inkscape" xmlns:sodipodi="http://sodipodi.sourceforge.net/DTD/sodipodi-0.dtd"><sodipodi:namedview bordercolor="#000000" borderopacity="0.25" inkscape:current-layer="svg34" inkscape:cx="32" inkscape:cy="32" inkscape:deskcolor="#d1d1d1" inkscape:pagecheckerboard="0" inkscape:pageopacity="0.0" inkscape:showpageshadow="2" inkscape:window-height="1706" inkscape:window-maximized="1" inkscape:window-width="2880" inkscape:window-x="-11" inkscape:window-y="-11" inkscape:zoom="22.328125" pagecolor="#ffffff"/><g fill="#0055d4">
<g id="Group_Transmitter_Support">
	<path d="M0,108.781h53.15v3.716H0V108.781z" fill="#0055d4" stroke="#4C4C4C" stroke-width=".25"/>
</g>
<g id="Group_Transmitter_Level_Stand" stroke="#4C4C4C" stroke-width=".25">
	
	<path d="M19.256,56.757h13.288v6.081H19.256V56.757z"/>
	
	<path d="m20.495 62.838-5.405 43.578h23.535l-7.207-43.578h-10.923z"/>
	
	<path d="m8.333 106.42h36.372v2.365h-36.372v-2.365z"/>
	<path d="m19.256 58.559h13.288"/>
</g>
<g stroke="#4C4C4C" stroke-width=".25">
	<path d="m10.81 104.62h2.364v1.801h-2.364v-1.801z"/>
	<path d="m18.017 104.62h2.478v1.801h-2.478v-1.801z"/>
	<path d="m25.336 104.62h2.365v1.801h-2.365v-1.801z"/>
	<path d="m32.544 104.62h2.478v1.801h-2.478v-1.801z"/>
	<path d="m39.862 104.62h2.365v1.801h-2.365v-1.801z"/>


	<path d="m32.544 59.459h-5.969v2.703h5.969v-2.703z"/>
</g>
<g id="Group_Radar" stroke="#4C4C4C" stroke-width=".25">
	<path d="M7.77,21.624h37.499v10.923H7.77V21.624z"/>
	<path d="M7.77,18.696h37.499v1.126H7.77V18.696z"/>
	
	<path d="M8.445,19.822h36.26v37.047H8.445V19.822z"/>
	
	<path d="M27.701,3.606V3.494v0.563L27.025,4.62h-0.9l-0.676-0.563   l-0.113-0.563v0.113V0.003h-2.364v6.531H7.207v12.049h38.736V6.534H30.179V0.003h-2.479V3.606z"/>
</g>
<g id="Group_Plate">
	
	<path d="M10.81,33.222h31.417V52.59H10.81V33.222z" fill="#0055d4" stroke="#4C4C4C" stroke-width=".25"/>
</g>
<g id="Group_Fasteners" stroke="#4C4C4C" stroke-width=".25">
	<circle cx="12.049" cy="34.348" r=".563"/>
	<path d="m11.373 34.46h1.239"/>
	<circle cx="12.049" cy="51.352" r=".563"/>
	<path d="m11.373 51.352h1.239"/>
	<circle cx="41.102" cy="34.348" r=".563"/>
	<path d="m40.426 34.46h1.239"/>
	<circle cx="41.102" cy="51.352" r=".563"/>
	<path d="m40.426 51.352h1.239"/>
</g>
<g id="Group_Radar_Level_Indicator">
	
	<polygon points="26.395 25.339 27.071 25.339 27.747 25.564 28.424 25.902 28.986 26.353 29.437 26.916 29.775 27.479 29.886 28.267 30 28.943 29.886 29.731 29.775 30.407 29.437 30.97 28.986 31.533 28.424 31.984 27.747 32.322 27.071 32.547 26.395 32.547 25.607 32.547 24.931 32.322 24.368 31.984 23.805 31.533 23.354 30.97 23.016 30.407 22.792 29.731 22.679 28.943 22.792 28.267 23.016 27.479 23.354 26.916 23.805 26.353 24.368 25.902 24.931 25.564 25.607 25.339" fill="#0055d4"/>
</g>
</g></svg>
