<?xml version="1.0" encoding="UTF-8"?>
<svg width="272.05mm" height="199.49mm" inkscape:version="1.3 (0e150ed6c4, 2023-07-21)" sodipodi:docname="FeedAndDischarge.svg" version="1.1" viewBox="0 0 272.05 199.49" xmlns="http://www.w3.org/2000/svg" xmlns:inkscape="http://www.inkscape.org/namespaces/inkscape" xmlns:sodipodi="http://sodipodi.sourceforge.net/DTD/sodipodi-0.dtd">
 <sodipodi:namedview bordercolor="#000000" borderopacity="0.25" inkscape:current-layer="g18" inkscape:cx="-697.54897" inkscape:cy="196.38203" inkscape:deskcolor="#d1d1d1" inkscape:document-units="mm" inkscape:pagecheckerboard="0" inkscape:pageopacity="0.0" inkscape:showpageshadow="2" inkscape:window-height="1706" inkscape:window-maximized="1" inkscape:window-width="2880" inkscape:window-x="-11" inkscape:window-y="-11" inkscape:zoom="0.31825722" pagecolor="#ffffff"/>
 <g transform="translate(-40.113 -79.783)" stroke-width="0" inkscape:groupmode="layer" inkscape:label="图层 1">
  <rect x="65.101" y="112.19" width="222.07" height="167.09" rx="9.5355e-17" ry="73.419" fill="#0055d4"/>
  <rect x="40.113" y="79.783" width="272.05" height="35.644" rx="9.5355e-17" ry="35.644" fill="#0055d4"/>
  <g transform="matrix(4.7254 0 0 4.7254 -149.44 -297.23)" fill="#fff">
   <rect x="48.877" y="89.994" width="40.043" height="1.6627" rx="2.1916e-17" ry="1.6627"/>
   <rect x="48.877" y="87.842" width="40.043" height="1.6627" rx="2.1916e-17" ry="1.6627"/>
   <rect x="48.845" y="92.075" width="40.043" height="1.6627" rx="2.1916e-17" ry="1.6627"/>
   <rect x="48.845" y="94.192" width="40.043" height="1.6627" rx="2.1916e-17" ry="1.6627"/>
   <rect x="48.845" y="96.308" width="40.043" height="1.6627" rx="2.1916e-17" ry="1.6627"/>
   <rect x="48.845" y="98.425" width="40.043" height="1.6627" rx="2.1916e-17" ry="1.6627"/>
   <rect x="48.845" y="100.54" width="40.043" height="1.6627" rx="2.1916e-17" ry="1.6627"/>
   <rect x="48.877" y="102.66" width="40.043" height="1.6627" rx="2.1916e-17" ry="1.6627"/>
   <rect x="48.877" y="104.77" width="40.043" height="1.6627" rx="2.1916e-17" ry="1.6627"/>
   <rect x="48.877" y="106.89" width="40.043" height="1.6627" rx="2.1916e-17" ry="1.6627"/>
   <rect x="48.877" y="109.01" width="40.043" height="1.6627" rx="2.1916e-17" ry="1.6627"/>
   <rect x="48.877" y="111.12" width="40.043" height="1.6627" rx="2.1916e-17" ry="1.6627"/>
   <rect x="48.877" y="113.24" width="40.043" height="1.6627" rx="2.1916e-17" ry="1.6627"/>
   <rect x="48.877" y="115.36" width="40.043" height="1.6627" rx="2.1916e-17" ry="1.6627"/>
   <rect x="48.877" y="117.47" width="40.043" height="1.6627" rx="2.1916e-17" ry="1.6627"/>
  </g>
 </g>
</svg>
