<?xml version="1.0" encoding="UTF-8"?>
<svg width="64px" height="64px" enable-background="new 0 0 112.5 25.791" inkscape:version="1.3 (0e150ed6c4, 2023-07-21)" sodipodi:docname="HighVacuumBaffleValve.svg" version="1.1" viewBox="0 0 112.5 25.791" xml:space="preserve" xmlns="http://www.w3.org/2000/svg" xmlns:inkscape="http://www.inkscape.org/namespaces/inkscape" xmlns:sodipodi="http://sodipodi.sourceforge.net/DTD/sodipodi-0.dtd"><sodipodi:namedview bordercolor="#000000" borderopacity="0.25" inkscape:current-layer="svg53" inkscape:cx="32" inkscape:cy="32" inkscape:deskcolor="#d1d1d1" inkscape:pagecheckerboard="0" inkscape:pageopacity="0.0" inkscape:showpageshadow="2" inkscape:window-height="1706" inkscape:window-maximized="1" inkscape:window-width="2880" inkscape:window-x="-11" inkscape:window-y="-11" inkscape:zoom="22.328125" pagecolor="#ffffff"/><g fill="#0055d4">
<g id="Group_Downstream_Pipe_Flange" stroke="#4C4C4C" stroke-width=".25">
	
		
	<path d="M88.626,8.559h19.595v8.672H88.626V8.559"/>
	
		
	<path d="M112.5,4.28h-4.279V21.51h4.279V4.28"/>
	
		
	<path d="m109.8 4.28v17.23"/>
</g>
<g id="Group_Support" stroke="#4C4C4C" stroke-width=".25">
	<path d="m38.852 25.789v-6.531h-28.154v6.531h6.531l3.153-5.405h8.784l3.153 5.405h6.533z"/>
	<path d="M38.852,21.51h-1.126v3.152H32.32v1.126h6.532V21.51z"/>
	<path d="M10.698,13.965h1.126v10.698h5.405v1.126h-6.531V13.965z"/>
</g>
<g id="Group_Base" stroke="#4C4C4C" stroke-width=".25">
	
		
	<path d="M101.689,7.321h-6.531v18.468h6.531V7.321"/>
	<path d="m102.14 24.213h-7.434v1.576h7.434v-1.576z"/>
</g>
<g id="Group_Volute_Chamber" stroke="#4C4C4C" stroke-width=".25">
	<path d="M43.131,4.28h-2.027V21.51h2.027V4.28z"/>
	<path d="m41.104 4.28h-15.316v17.23h15.315l1e-3 -17.23z"/>
	<path d="M38.401,7.321h-9.91v10.811h9.91V7.321z"/>
	<path d="m31.194 11.262h-2.703v3.04h2.703v-3.04"/>
	<path d="M38.401,8.559h-4.955v8.672h4.955V8.559z"/>
	<path d="m33.446 10.023h-2.252v5.405h2.252v-5.405z"/>
</g>
<g id="Group_Drivershaft_Flange">
	
		
	<path d="m31.194 11.262h-2.703v3.04h2.703v-3.04z"/>
	
		
	<path d="M8.446,11.262H0v3.04h8.446V11.262" stroke="#4C4C4C" stroke-width=".25"/>
	
		
	<path d="M8.671,19.258h17.117V6.195H8.671V19.258" stroke="#4C4C4C" stroke-width=".25"/>
</g>
<g id="Group_Feed_Tank" stroke="#4C4C4C" stroke-width=".25">
	
		
	<path d="M88.626,4.28h-4.278V21.51h4.278V4.28"/>
	
		
	<path d="m60.473 19.258-17.342-2.026v-8.673l17.342-2.364h23.875v13.063h-23.875"/>
	
		
	<path d="m87.049 4.28v17.23"/>
</g>
<g id="Group_Label">
	<path d="m59.348 11.262-1.127 0.338-0.449 1.126 0.449 1.238 1.127 0.338 0.9-0.225 0.788-1.014 0.112-0.338-0.562-1.125-0.9-0.338h-0.338z" fill="#0055d4" stroke="#7F7F7F" stroke-width=".25"/>
</g>

<g id="Group_Upstream_Pipe_Flange" stroke="#4C4C4C" stroke-width=".25">
	
		
	<path d="m53.941 7.321 0.451 1.014 1.126 0.676 1.239 0.337 1.464 0.226 0.563 0.112h1.127l1.126-0.112 1.352-0.226 1.127-0.45 1.014-0.788 0.225-0.788v-5.294h-10.814v5.293z"/>
	
		
	<path d="M71.283,2.028V0.001H47.635v2.027H71.283"/>
</g>
</g></svg>
