<?xml version="1.0" encoding="UTF-8"?>
<svg width="64px" height="64px" enable-background="new 0 0 112.5 61.148" inkscape:version="1.3 (0e150ed6c4, 2023-07-21)" sodipodi:docname="MechanicalPump.svg" version="1.1" viewBox="0 0 112.5 61.148" xml:space="preserve" xmlns="http://www.w3.org/2000/svg" xmlns:inkscape="http://www.inkscape.org/namespaces/inkscape" xmlns:sodipodi="http://sodipodi.sourceforge.net/DTD/sodipodi-0.dtd"><sodipodi:namedview bordercolor="#000000" borderopacity="0.25" inkscape:current-layer="svg69" inkscape:cx="32" inkscape:cy="32" inkscape:deskcolor="#d1d1d1" inkscape:pagecheckerboard="0" inkscape:pageopacity="0.0" inkscape:showpageshadow="2" inkscape:window-height="1706" inkscape:window-maximized="1" inkscape:window-width="2880" inkscape:window-x="-11" inkscape:window-y="-11" inkscape:zoom="22.328125" pagecolor="#ffffff"/><g fill="#0055d4">
<g id="Group_Exhaust" stroke="#4C4C4C" stroke-width=".25">
	<path d="m2.703 51.802 2.14-12.726h37.613v-3.828h26.464v-3.378h24.212v19.933l-90.429-1e-3z"/>
	<path d="M68.355,31.983v-1.126H93.13v1.126H68.355z"/>
	<path d="M41.892,35.249v-1.127h27.027v1.127H41.892z"/>
	<path d="M4.279,39.077v-1.125h38.176v1.125H4.279z"/>
</g>
<g id="Group_Fasteners">
	
	<circle cx="17.004" cy="45.608" r="3.266"/>
	
	<circle cx="47.86" cy="41.217" r="3.266"/>
	
	<circle cx="82.096" cy="37.951" r="3.266"/>
</g>

	<path d="M71.059,39.64h5.519v2.253h-5.519V39.64z"/>
	<path d="M71.059,41.893V39.64h5.519" stroke="#999" stroke-width=".25"/>


	<path d="m71.059 34.122h5.519v4.393h-5.519v-4.393z"/>
	<path d="m71.059 38.514v-4.393h5.519" stroke="#999" stroke-width=".25"/>

<g id="Group_Red">
	<path d="m72.186 40.204h3.377v1.125h-3.377v-1.125z" fill="#0055d4"/>
</g>
<g id="Group_Bottom_Support" stroke="#4C4C4C" stroke-width=".25">
	<path d="M1.577,52.928H100.9v6.531H1.577V52.928z"/>
	<path d="M0.451,59.459h101.576v1.127H0.451V59.459z"/>
	<path d="M0.451,51.802h101.576v1.126H0.451V51.802z"/>
</g>
<g id="Group_Rotor">
	
	<path d="m46.847 34.122v-18.694h11.036v3.829h6.645v-2.815h28.604v7.771l-3.266 6.644h-20.947v3.266h-22.072z" fill="#0055d4" stroke="#4C4C4C" stroke-width=".25"/>
</g>
<g stroke-width=".25">
	<path d="m48.986 31.87v-4.393h5.518" stroke="#fff"/>
	<path d="m54.504 27.478v4.393h-5.405" stroke="#4C4C4C"/>


	<path d="m85.473 28.604v-2.252h4.394" stroke="#fff"/>
	<path d="m89.865 26.352v2.252h-4.393" stroke="#4C4C4C"/>
</g>
<g id="Group_Shaft">
	
	<path d="m44.595 27.478h2.252v-8.784h-2.252v8.784z" fill="#0055d4" stroke="#4C4C4C" stroke-width=".25"/>
</g>
<g id="Group_Motor" stroke="#4C4C4C" stroke-width=".25">
	
	<path d="m35.811 35.249 8.784-1.804v-20.832l-8.784-1.688h-30.969l-4.392 1.688v21.734l4.392 0.901 30.969 1e-3"/>
	<path d="M4.842,35.249V10.924"/>
	<path d="m11.486 10.924v24.325"/>
	<path d="m35.811 10.924v24.325"/>
</g>
<g id="Group_Motor_Vent">
	<path d="M12.613,16.104h22.072v19.146H12.613V16.104z" fill="#0055d4" stroke="#4C4C4C" stroke-width=".25"/>
</g>
<g id="Group_Motor_Fins">
	<path d="M12.049,24.775h23.198v0.901H12.049V24.775z"/>
	<path d="m12.049 27.365h23.198v0.9h-23.198v-0.9z"/>
	<path d="M12.049,17.005h23.198v0.901H12.049V17.005z"/>
	<path d="M12.049,19.595h23.198v0.901H12.049V19.595z"/>
	<path d="M12.049,29.618h23.198v0.788H12.049V29.618z"/>
	<path d="m12.049 31.307h23.198v0.9h-23.198v-0.9z"/>
	<path d="M12.049,33.108h23.198v0.789H12.049V33.108z"/>
	<path d="M12.049,22.185h23.198v0.901H12.049V22.185z"/>
</g>
<g id="Group_Stand" stroke="#4C4C4C" stroke-width=".25">
	<path d="m13.739 36.825 0.563-1.576h18.694l0.563 1.576h-19.82z"/>
	
	<path d="m11.486 38.514v-1.688h6.645v-3.828h11.036v3.828h6.645v1.688h-24.326z"/>
</g>
<g id="Group_Motor_Top" stroke="#4C4C4C" stroke-width=".25">
	
	<path d="M26.352,12.05l-0.451-2.252h14.302L39.64,12.05H26.352z"/>
	
	<path d="M25.901,9.347l1.014-3.378h12.162l1.126,3.378H25.901z"/>
	<path d="M24.775,9.347h16.554v0.451H24.775V9.347z"/>
</g>
<g id="Group_Coupling">
	<path d="M106.419,39.64h1.126V13.176h-1.126V39.64z"/>
	
	<path d="M93.131,7.658h13.288v41.891H93.131V7.658z" stroke="#4C4C4C" stroke-width=".25"/>
</g>
<g stroke="#4C4C4C" stroke-width=".25">
	
	<path d="M95.383,47.411V1.577h8.783V47.41"/>
	<path d="M94.257,0.451h11.036v1.126H94.257V0.451z"/>
	<path d="M94.257,14.189h11.036v1.126H94.257V14.189z"/>
	<path d="M94.257,27.478h11.036v1.126H94.257V27.478z"/>
	<path d="M94.257,40.204h11.036v1.125H94.257V40.204z"/>
</g>
<g id="Group_Port">
	
	<path d="M107.545,51.802h3.266V1.014h-3.266V51.802" fill="#0055d4" stroke="#4C4C4C" stroke-width=".25"/>
</g>
<g id="Group_Bolt" stroke="#4C4C4C" stroke-width=".25">
	<path d="m110.81 3.266h1.127v3.267h-1.127v-3.267z"/>
	<path d="m110.81 11.825h1.127v3.266h-1.127v-3.266z"/>
	<path d="m110.81 20.496h1.127v3.266h-1.127v-3.266z"/>
	<path d="m110.81 29.055h1.127v3.266h-1.127v-3.266z"/>
	<path d="m110.81 37.725h1.127v3.267h-1.127v-3.267z"/>
	<path d="m110.81 46.284h1.127v3.266h-1.127v-3.266z"/>
</g>
</g></svg>
