<?xml version="1.0" encoding="UTF-8"?>
<svg width="64px" height="64px" enable-background="new 0 0 55.18 112.5" inkscape:version="1.3 (0e150ed6c4, 2023-07-21)" sodipodi:docname="MeteringValve.svg" version="1.1" viewBox="0 0 55.18 112.5" xml:space="preserve" xmlns="http://www.w3.org/2000/svg" xmlns:inkscape="http://www.inkscape.org/namespaces/inkscape" xmlns:sodipodi="http://sodipodi.sourceforge.net/DTD/sodipodi-0.dtd"><sodipodi:namedview bordercolor="#000000" borderopacity="0.25" inkscape:current-layer="svg93" inkscape:cx="32" inkscape:cy="32" inkscape:deskcolor="#d1d1d1" inkscape:pagecheckerboard="0" inkscape:pageopacity="0.0" inkscape:showpageshadow="2" inkscape:window-height="1706" inkscape:window-maximized="1" inkscape:window-width="2880" inkscape:window-x="-11" inkscape:window-y="-11" inkscape:zoom="22.328125" pagecolor="#ffffff"/><g fill="#0055d4">
<g stroke="#4C4C4C" stroke-width=".25">
	
		
	<path d="m31.983 93.919-0.676 13.739h9.346v-13.739h-8.67z"/>
	
		
	<path d="M44.032,89.527h-1.689v22.521h1.689V89.527z"/>
	
		
	<path d="M40.315,89.527h2.027v22.521h-2.027V89.527z"/>
	</g><path d="m44.032 111.15h0.45v0.226h-0.45v-0.226z"/>
	<path d="m44.032 107.66h0.45v0.449h-0.45v-0.449z"/>
	<path d="m44.032 104.39h0.45v0.338h-0.45v-0.338z"/>
	<path d="m44.032 101.01h0.45v0.226h-0.45v-0.226z"/>
	<path d="m44.032 97.521h0.45v0.338h-0.45v-0.338z"/>
	<path d="m44.032 90.991h0.45v0.226h-0.45v-0.226z"/>
	<path d="m44.032 94.145h0.45v0.45h-0.45v-0.45z"/>
	<path d="m44.032 111.15h0.45v-0.563h-0.45v0.563z"/>
	<path d="m44.032 107.66h0.45v-0.227h-0.45v0.227z"/>
	<path d="m44.032 104.17h0.45v-0.225h-0.45v0.225z"/>
	<path d="m44.032 101.01h0.45v-0.451h-0.45v0.451z"/>
	<path d="m44.032 97.521h0.45v-0.449h-0.45v0.449z"/>
	<path d="m44.032 94.145h0.45v-0.226h-0.45v0.226z"/>
	<path d="m44.032 90.652h0.45v-0.226h-0.45v0.226z"/>
	<path d="M40.315,90.428H40.09v0.563h0.225V90.428z"/>
	<path d="M40.315,93.693H40.09v0.676h0.225V93.693z"/>
	<path d="M40.315,97.072H40.09v0.787h0.225V97.072z"/>
	<path d="m40.315 100.56h-0.225v0.677h0.225v-0.677z"/>
	<path d="m40.315 103.94h-0.225v0.451h0.225v-0.451z"/>
	<path d="m40.315 107.21h-0.225v0.676h0.225v-0.676z"/>
	<path d="m40.315 110.59h-0.225v0.788h0.225v-0.788z"/>
	<path d="m44.032 90.203h0.45v1.014h-0.45v-1.014z"/>
	<path d="m44.032 93.355h0.45v1.238h-0.45v-1.238z"/>
	<path d="m44.032 96.848h0.45v1.238h-0.45v-1.238z"/>
	<path d="m44.032 100.34h0.45v1.126h-0.45v-1.126z"/>
	<path d="m44.032 103.72h0.45v1.014h-0.45v-1.014z"/>
	<path d="m44.032 107.21h0.45v0.9h-0.45v-0.9z"/>
	<path d="m44.032 110.36h0.45v1.24h-0.45v-1.24z"/><g stroke="#4C4C4C" stroke-width=".25">


	
		
	<path d="M14.077,93.919l0.45,13.739H5.519V93.919H14.077z"/>
	
		
	<path d="M1.802,89.527h1.914v22.521H1.802V89.527z"/>
	
		
	<path d="m5.519 89.527h-1.803v22.521h1.802l1e-3 -22.521z"/>
	</g><path d="m1.802 111.15h-0.563v0.226h0.563v-0.226z"/>
	<path d="m1.802 107.66h-0.563v0.449h0.563v-0.449z"/>
	<path d="m1.802 104.39h-0.563v0.338h0.563v-0.338z"/>
	<path d="m1.802 101.01h-0.563v0.226h0.563v-0.226z"/>
	<path d="M1.802,97.521H1.239v0.338h0.563V97.521z"/>
	<path d="M1.802,90.991H1.239v0.226h0.563V90.991z"/>
	<path d="m1.802 94.145h-0.563v0.45h0.563v-0.45z"/>
	<path d="m1.802 111.15h-0.563v-0.563h0.563v0.563z"/>
	<path d="m1.802 107.66h-0.563v-0.227h0.563v0.227z"/>
	<path d="m1.802 104.17h-0.563v-0.225h0.563v0.225z"/>
	<path d="m1.802 101.01h-0.563v-0.451h0.563v0.451z"/>
	<path d="m1.802 97.521h-0.563v-0.449h0.563v0.449z"/>
	<path d="m1.802 94.145h-0.563v-0.226h0.563v0.226z"/>
	<path d="m1.802 90.652h-0.563v-0.226h0.563v0.226z"/>
	<path d="m5.519 90.428h0.45v0.563h-0.45v-0.563z"/>
	<path d="m5.519 93.693h0.45v0.676h-0.45v-0.676z"/>
	<path d="m5.519 97.072h0.45v0.787h-0.45v-0.787z"/>
	<path d="m5.519 100.56h0.45v0.677h-0.45v-0.677z"/>
	<path d="m5.519 103.94h0.45v0.451h-0.45v-0.451z"/>
	<path d="m5.519 107.21h0.45v0.676h-0.45v-0.676z"/>
	<path d="m5.519 110.59h0.45v0.788h-0.45v-0.788z"/>
	<path d="M1.802,90.203H1.239v1.014h0.563V90.203z"/>
	<path d="M1.802,93.355H1.239v1.238h0.563V93.355z"/>
	<path d="M1.802,96.848H1.239v1.238h0.563V96.848z"/>
	<path d="m1.802 100.34h-0.563v1.126h0.563v-1.126z"/>
	<path d="m1.802 103.72h-0.563v1.014h0.563v-1.014z"/>
	<path d="m1.802 107.21h-0.563v0.9h0.563v-0.9z"/>
	<path d="m1.802 110.36h-0.563v1.24h0.563v-1.24z"/>

<g id="Group_Port_Connector" stroke="#4C4C4C" stroke-width=".25">
	
		
	<path d="m28.829 109.35v1.801h-12.049v-1.801h-2.026l-2.141-45.384h20.384l-1.688 45.384h-2.48z"/>
	<path d="m12.613 64.641h1.915l2.027 45.045h-2.027l-1.915-45.045z"/>
	<path d="m33.221 64.641h-1.688l-2.253 45.045h2.027l1.914-45.045z"/>
</g>
<g id="Group_Holder">
	<path d="m32.77 69.595 1.465 0.226h1.465l1.013 0.226 1.915 0.226 0.676 0.563h0.338l-0.338 0.226-0.901 0.449-1.688 0.227-2.026 0.338h-2.478l-2.929 0.225h-14.53l-1.126-0.225h-2.479v8.333l-0.563 1.239-1.462 0.672-1.464-0.676-0.451-0.563v-9.798l-1.239-0.225v-0.226h0.225l0.789-0.563 1.914-0.226 2.479-0.226 1.464-0.226 1.464 0.226 2.478 0.226 2.929 0.226h6.419l2.928-0.226h2.253l1.46-0.448z" fill="#0055d4"/>
</g>
<g id="Group_Hose_Connector"><g stroke="#4C4C4C" stroke-width=".25">
	<path d="m48.199 55.856h4.729v1.689h-4.729v-1.689z"/>
	<path d="M46.735,44.82h2.252l2.365,11.036h-4.617V44.82z"/>
	<path d="m54.842 51.126-5.855-6.306 2.365 11.036h2.702l0.788-4.73z"/>
	</g><path d="m45.045 45.271h1.688v8.108h-1.688v-8.108z"/>
</g>
<g id="Group_Hose">
	<path d="m49.211 57.545h2.479v8.784l-0.112 0.788-0.112 1.352-0.338 1.352-0.563 1.125-0.676 1.128-0.9 1.014-0.899 0.899-1.239 0.789-1.239 0.787-1.352 0.677-1.463 0.676-1.689 0.563-1.802 0.563-1.802 0.45-1.914 0.45-1.014 0.113-1.015 0.225-1.127 0.113 0.338-2.93 1.577-0.227 1.464-0.338 1.576-0.338 1.465-0.338 1.353-0.449 1.351-0.563 1.353-0.563 1.126-0.676 1.127-0.677 1.013-0.788 0.901-0.9 1.352-2.028 0.449-1.126 0.227-1.238 0.111-1.352v-7.319h-6e-3z" fill="#0055d4" stroke="#4C4C4C" stroke-width=".25"/>
</g>
<g id="Group_Pump" stroke="#4C4C4C" stroke-width=".25">
	
		
	<path d="m45.27 65.203-2.702 0.449-5.181 0.451-7.094 0.226-7.883 0.337-7.884-0.337-6.868-0.226-4.955-0.451-2.365-0.449v-63.176h44.932v63.176"/>
	<path d="m22.635 0.338 15.991 0.45 6.644 1.014-6.644 1.239-15.991 0.45-15.653-0.45-6.644-1.239 6.644-1.014 15.653-0.45z"/>
	<path d="m45.27 10.135-6.644 1.013-15.991 0.451-15.653-0.451-6.644-1.013"/>
	<path d="m45.27 32.996-6.644 1.013-15.991 0.451-15.653-0.451-6.644-1.013"/>
</g>
<g id="Group_Vent" stroke="#4C4C4C" stroke-width=".25">
	<path d="M1.802,4.955L7.883,5.18v3.716L1.802,8.671V4.955z"/>
	<path d="M37.838,5.18l5.969-0.451v3.716l-5.969,0.676V5.18z"/>
	<path d="M19.032,5.743h7.995v3.716h-7.995V5.743z"/>
	<path d="M28.829,5.743l7.319-0.225v3.604L28.829,9.46V5.743z"/>
	<path d="M9.91,5.518l7.319,0.225v3.716L9.91,9.122V5.518z"/>
</g>
</g></svg>
