<?xml version="1.0" encoding="UTF-8"?>
<svg width="64px" height="64px" enable-background="new 0 0 112.5 111.938" inkscape:version="1.3 (0e150ed6c4, 2023-07-21)" sodipodi:docname="RoughExtractionValve.svg" version="1.1" viewBox="0 0 112.5 111.94" xml:space="preserve" xmlns="http://www.w3.org/2000/svg" xmlns:inkscape="http://www.inkscape.org/namespaces/inkscape" xmlns:sodipodi="http://sodipodi.sourceforge.net/DTD/sodipodi-0.dtd"><sodipodi:namedview bordercolor="#000000" borderopacity="0.25" inkscape:current-layer="svg29" inkscape:cx="32" inkscape:cy="32" inkscape:deskcolor="#d1d1d1" inkscape:pagecheckerboard="0" inkscape:pageopacity="0.0" inkscape:showpageshadow="2" inkscape:window-height="1017" inkscape:window-maximized="1" inkscape:window-width="1920" inkscape:window-x="-8" inkscape:window-y="-8" inkscape:zoom="12.359375" pagecolor="#ffffff"/><g fill="#f00">
<g stroke="#4C4C4C" stroke-width=".25">
	
	<path d="M3.716,36.037L2.252,38.74L0.9,47.073L0.113,59.235L0,73.875   L0.113,88.74l0.788,12.051l1.352,8.106l1.464,3.041h9.347v-75.9H3.716"/>
	<ellipse cx="13.176" cy="73.987" rx="3.941" ry="37.951"/>
</g>
<g id="Group_Sludge">
	
	<path d="M104.617,54.393H12.5v39.19h92.117V54.393z"/>
	<path d="m14.527 54.393-0.675 1.577-0.789 4.279-0.563 6.081v15.091l0.563 6.306 0.789 4.279 0.675 1.577h-1.239l-0.788-1.578-0.451-4.279-0.45-6.306v-15.09l0.45-6.081 0.451-4.279 0.788-1.577h1.239z"/>
</g>
<g id="Group_Microwave">
	<path d="m70.834 53.154-1.577 1.239v-9.233l1.577-1.576v9.57z" fill="#f00" stroke="#4C4C4C" stroke-width=".25"/>
</g>

	
	<path d="m103.83 36.037-0.9 2.703-0.9 8.333-0.45 12.161-0.226 14.641 0.226 14.864 0.45 12.051 0.9 8.106 0.9 3.041h6.082v-75.9h-6.082" stroke="#4C4C4C" stroke-width=".25"/>
	<ellipse cx="109.91" cy="73.987" rx="2.477" ry="37.951" stroke="#4C4C4C" stroke-width=".25"/>
	
	
	
	<path d="m108.11 71.848-0.226 1.014v4.73l0.226 1.014v-1.016l0.338-2.478-0.338-2.252v-1.012z"/>
	<path d="m111.94 71.848v1.014l-0.226 2.253 0.226 2.477v1.014l0.226-1.014v-4.73l-0.226-1.014z"/><g stroke="#4C4C4C" stroke-width=".25">
	<path d="m109.91 54.956-0.789 5.518-0.449 13.401 0.449 13.626 0.789 5.518 1.014-5.518 0.338-13.626-0.338-13.401-1.014-5.518"/>

<g id="Group_Meter_BOx">
	<path d="m43.356 55.406h27.703l4.279 4.279v27.815l-4.279 4.278h-27.703l-4.392-4.278v-27.814l4.392-4.28z"/>
	
	<path d="m42.117 56.757h27.703l4.279 4.167v27.813l-4.279 4.279h-27.703l-4.392-4.279v-27.813l4.392-4.167z"/>
</g>
<g id="Group_Fasteners">
	<path d="m41.779 59.235 0.788 0.226 0.563 1.014-0.563 0.789-0.788 0.225-0.788-0.225-0.451-0.789 0.451-1.014 0.788-0.226z"/>
	<path d="m40.991 59.686 1.576 1.238"/>
	<path d="m41.779 88.29 0.788 0.449 0.563 0.788-0.563 0.677-0.788 0.563-0.788-0.563-0.451-0.677 0.451-0.788 0.788-0.449z"/>
	<path d="m40.991 88.965 1.576 1.013"/>
	<path d="m69.82 59.235 0.676 0.226 0.563 1.014-0.563 0.789-0.676 0.225-1.014-0.225-0.227-0.789 0.227-1.014 1.014-0.226z"/>
	<path d="m68.807 59.686 1.465 1.238"/>
	<path d="m69.82 88.29 0.676 0.449 0.563 0.788-0.563 0.677-0.676 0.563-1.014-0.563-0.227-0.677 0.227-0.788 1.014-0.449z"/>
	<path d="m68.807 88.965 1.465 1.013"/>
</g>
</g><g id="Group_Density_Controller">
	
	<path d="m42.342 54.393h26.915v-9.233h-26.915v9.233z" fill="#f00" stroke="#4C4C4C" stroke-width=".25"/>
</g>
<g id="Group_Microwave_Box" stroke="#4C4C4C" stroke-width=".25">
	<path d="m91.441 3.942-4.504 4.617v36.6l4.504-4.617v-36.6z"/>
	<path d="M25.451,8.559h61.486v36.6H25.451V8.559z"/>
	<path d="m91.441 3.942-4.504 4.617v-4.054l4.504-4.504v3.941z"/>
	<path d="m29.729 1e-3h61.712l-4.504 4.504h-61.486l4.278-4.504z"/>
	<path d="M25.451,8.559h61.486V4.505H25.451V8.559z"/>
</g>
<g stroke="#4C4C4C" stroke-width=".25">
	<path d="m51.126 32.996h9.798v4.729h-9.798v-4.729z"/>


	<path d="m51.126 47.411h9.798v5.066h-9.798v-5.066z"/>
</g>
<g id="Group_Pressure_Reliever">
	
	<rect x="77.59" y="67.343" width="4.504" height="1.465"/>
	
	<path d="m81.982 72.073-1.578 1.802h-4.053v0.788h-1.465v-5.631h1.465v0.788h1.801v-1.014h-0.562v-1.464h0.789v-20.72h-1.014v-1.464h5.066v1.464h-0.787v20.721h0.449v1.464h-0.111v3.266z"/>
	
	<rect x="77.365" y="45.159" width="5.066" height="1.464"/>
	
	<rect x="74.887" y="69.032" width="1.465" height="5.631"/>
	
	<rect x="78.379" y="46.623" width="3.246" height="23.197"/>
</g>
</g></svg>
